# xmcd
#
# Track frame offsets:
#	150
#	17872
#	30847
#	46189
#	66622
#	81007
#	94982
#	111257
#	124167
#	141230
#	157502
#	171367
#
# Disc length: 2514 seconds
#
# Revision: 0
# Processed by: cddbd v1.4PL0 Copyright (c) Steve Scherf et al.
# Submitted via: EasyCDDAExtractor 5.0.4.1
#
DISCID=9909d00c
DTITLE=Danne Stråhed - Solosång
DYEAR=1998
DGENRE=Blues
TTITLE0=Solosång
TTITLE1=Fönsterkuvert
TTITLE2=Johanna
TTITLE3=Casanova
TTITLE4=En liten bit av din kärlek
TTITLE5=En lilja i dalen
TTITLE6=Singoalla
TTITLE7=Ge mej en kram
TTITLE8=La' de' leva
TTITLE9=Mambo jumbo
TTITLE10=Om du bara ville ringa
TTITLE11=Vallmoblomman
EXTD=
EXTT0=
EXTT1=
EXTT2=
EXTT3=
EXTT4=
EXTT5=
EXTT6=
EXTT7=
EXTT8=
EXTT9=
EXTT10=
EXTT11=
PLAYORDER=
